<svg xmlns="http://www.w3.org/2000/svg" version="1.1" xmlns:xlink="http://www.w3.org/1999/xlink" xmlns:svgjs="http://svgjs.dev/svgjs" width="1440" height="259" preserveAspectRatio="none" viewBox="0 0 1440 259"><g mask="url(&quot;#SvgjsMask1069&quot;)" fill="none"><path d="M44 259L303 0L601.5 0L342.5 259z" fill="url(&quot;#SvgjsLinearGradient1070&quot;)"></path><path d="M265.6 259L524.6 0L631.1 0L372.1 259z" fill="url(&quot;#SvgjsLinearGradient1070&quot;)"></path><path d="M497.20000000000005 259L756.2 0L798.2 0L539.2 259z" fill="url(&quot;#SvgjsLinearGradient1070&quot;)"></path><path d="M719.8000000000001 259L978.8000000000001 0L1139.3000000000002 0L880.3000000000001 259z" fill="url(&quot;#SvgjsLinearGradient1070&quot;)"></path><path d="M1426 259L1167 0L921 0L1180 259z" fill="url(&quot;#SvgjsLinearGradient1071&quot;)"></path><path d="M1156.4 259L897.4000000000001 0L547.9000000000001 0L806.9000000000001 259z" fill="url(&quot;#SvgjsLinearGradient1071&quot;)"></path><path d="M934.8 259L675.8 0L342.79999999999995 0L601.8 259z" fill="url(&quot;#SvgjsLinearGradient1071&quot;)"></path><path d="M725.1999999999999 259L466.19999999999993 0L205.19999999999993 0L464.19999999999993 259z" fill="url(&quot;#SvgjsLinearGradient1071&quot;)"></path><path d="M1245.9902753171432 259L1440 64.99027531714313L1440 259z" fill="url(&quot;#SvgjsLinearGradient1070&quot;)"></path><path d="M0 259L194.00972468285687 259L 0 64.99027531714313z" fill="url(&quot;#SvgjsLinearGradient1071&quot;)"></path></g><defs><mask id="SvgjsMask1069"><rect width="1440" height="259" fill="#ffffff"></rect></mask><linearGradient x1="0%" y1="100%" x2="100%" y2="0%" id="SvgjsLinearGradient1070"><stop stop-color="rgba(107, 101, 255, 0.1)" offset="0"></stop><stop stop-opacity="0" stop-color="rgba(107, 101, 255, 0.1)" offset="0.66"></stop></linearGradient><linearGradient x1="100%" y1="100%" x2="0%" y2="0%" id="SvgjsLinearGradient1071"><stop stop-color="rgba(107, 101, 255, 0.1)" offset="0"></stop><stop stop-opacity="0" stop-color="rgba(107, 101, 255, 0.1)" offset="0.66"></stop></linearGradient></defs></svg>