<svg xmlns="http://www.w3.org/2000/svg" version="1.1" xmlns:xlink="http://www.w3.org/1999/xlink" xmlns:svgjs="http://svgjs.dev/svgjs" width="1440" height="560" preserveAspectRatio="none" viewBox="0 0 1440 560"><g mask="url(&quot;#SvgjsMask1046&quot;)" fill="none"><path d="M661 290L660 -31" stroke-width="6" stroke="url(&quot;#SvgjsLinearGradient1047&quot;)" stroke-linecap="round" class="Up"></path><path d="M355 56L354 -327" stroke-width="10" stroke="url(&quot;#SvgjsLinearGradient1047&quot;)" stroke-linecap="round" class="Up"></path><path d="M404 539L403 199" stroke-width="6" stroke="url(&quot;#SvgjsLinearGradient1048&quot;)" stroke-linecap="round" class="Down"></path><path d="M1205 117L1204 376" stroke-width="6" stroke="url(&quot;#SvgjsLinearGradient1048&quot;)" stroke-linecap="round" class="Down"></path><path d="M1124 517L1123 848" stroke-width="6" stroke="url(&quot;#SvgjsLinearGradient1047&quot;)" stroke-linecap="round" class="Up"></path><path d="M556 387L555 -30" stroke-width="6" stroke="url(&quot;#SvgjsLinearGradient1047&quot;)" stroke-linecap="round" class="Up"></path><path d="M403 250L402 1" stroke-width="10" stroke="url(&quot;#SvgjsLinearGradient1048&quot;)" stroke-linecap="round" class="Down"></path><path d="M632 119L631 409" stroke-width="8" stroke="url(&quot;#SvgjsLinearGradient1048&quot;)" stroke-linecap="round" class="Down"></path><path d="M681 24L680 304" stroke-width="6" stroke="url(&quot;#SvgjsLinearGradient1048&quot;)" stroke-linecap="round" class="Down"></path><path d="M707 274L706 -62" stroke-width="10" stroke="url(&quot;#SvgjsLinearGradient1048&quot;)" stroke-linecap="round" class="Down"></path><path d="M979 345L978 558" stroke-width="10" stroke="url(&quot;#SvgjsLinearGradient1047&quot;)" stroke-linecap="round" class="Up"></path><path d="M1401 428L1400 619" stroke-width="10" stroke="url(&quot;#SvgjsLinearGradient1048&quot;)" stroke-linecap="round" class="Down"></path><path d="M1081 261L1080 470" stroke-width="6" stroke="url(&quot;#SvgjsLinearGradient1047&quot;)" stroke-linecap="round" class="Up"></path><path d="M1157 263L1156 -34" stroke-width="8" stroke="url(&quot;#SvgjsLinearGradient1048&quot;)" stroke-linecap="round" class="Down"></path><path d="M776 170L775 0" stroke-width="8" stroke="url(&quot;#SvgjsLinearGradient1047&quot;)" stroke-linecap="round" class="Up"></path><path d="M409 400L408 652" stroke-width="6" stroke="url(&quot;#SvgjsLinearGradient1047&quot;)" stroke-linecap="round" class="Up"></path><path d="M1293 9L1292 -338" stroke-width="8" stroke="url(&quot;#SvgjsLinearGradient1047&quot;)" stroke-linecap="round" class="Up"></path><path d="M850 240L849 515" stroke-width="8" stroke="url(&quot;#SvgjsLinearGradient1047&quot;)" stroke-linecap="round" class="Up"></path><path d="M858 71L857 -205" stroke-width="8" stroke="url(&quot;#SvgjsLinearGradient1047&quot;)" stroke-linecap="round" class="Up"></path><path d="M620 1L619 290" stroke-width="6" stroke="url(&quot;#SvgjsLinearGradient1048&quot;)" stroke-linecap="round" class="Down"></path><path d="M975 15L974 -229" stroke-width="8" stroke="url(&quot;#SvgjsLinearGradient1048&quot;)" stroke-linecap="round" class="Down"></path><path d="M1198 549L1197 754" stroke-width="6" stroke="url(&quot;#SvgjsLinearGradient1048&quot;)" stroke-linecap="round" class="Down"></path><path d="M794 303L793 -31" stroke-width="10" stroke="url(&quot;#SvgjsLinearGradient1048&quot;)" stroke-linecap="round" class="Down"></path><path d="M1376 542L1375 211" stroke-width="8" stroke="url(&quot;#SvgjsLinearGradient1047&quot;)" stroke-linecap="round" class="Up"></path><path d="M148 308L147 118" stroke-width="10" stroke="url(&quot;#SvgjsLinearGradient1048&quot;)" stroke-linecap="round" class="Down"></path><path d="M356 232L355 13" stroke-width="8" stroke="url(&quot;#SvgjsLinearGradient1048&quot;)" stroke-linecap="round" class="Down"></path><path d="M290 344L289 175" stroke-width="8" stroke="url(&quot;#SvgjsLinearGradient1048&quot;)" stroke-linecap="round" class="Down"></path><path d="M352 500L351 149" stroke-width="10" stroke="url(&quot;#SvgjsLinearGradient1048&quot;)" stroke-linecap="round" class="Down"></path><path d="M159 147L158 -5" stroke-width="8" stroke="url(&quot;#SvgjsLinearGradient1047&quot;)" stroke-linecap="round" class="Up"></path><path d="M1043 80L1042 -297" stroke-width="8" stroke="url(&quot;#SvgjsLinearGradient1047&quot;)" stroke-linecap="round" class="Up"></path><path d="M820 211L819 -197" stroke-width="6" stroke="url(&quot;#SvgjsLinearGradient1047&quot;)" stroke-linecap="round" class="Up"></path><path d="M358 470L357 126" stroke-width="6" stroke="url(&quot;#SvgjsLinearGradient1047&quot;)" stroke-linecap="round" class="Up"></path><path d="M142 65L141 454" stroke-width="8" stroke="url(&quot;#SvgjsLinearGradient1047&quot;)" stroke-linecap="round" class="Up"></path><path d="M1356 139L1355 402" stroke-width="10" stroke="url(&quot;#SvgjsLinearGradient1047&quot;)" stroke-linecap="round" class="Up"></path><path d="M1269 398L1268 90" stroke-width="10" stroke="url(&quot;#SvgjsLinearGradient1048&quot;)" stroke-linecap="round" class="Down"></path><path d="M1235 479L1234 223" stroke-width="10" stroke="url(&quot;#SvgjsLinearGradient1047&quot;)" stroke-linecap="round" class="Up"></path></g><defs><mask id="SvgjsMask1046"><rect width="1440" height="560" fill="#ffffff"></rect></mask><linearGradient x1="0%" y1="100%" x2="0%" y2="0%" id="SvgjsLinearGradient1047"><stop stop-color="rgba(49, 44, 133, 0)" offset="0"></stop><stop stop-color="rgba(49, 44, 133, 0.38)" offset="1"></stop></linearGradient><linearGradient x1="0%" y1="0%" x2="0%" y2="100%" id="SvgjsLinearGradient1048"><stop stop-color="rgba(49, 44, 133, 0)" offset="0"></stop><stop stop-color="rgba(49, 44, 133, 0.38)" offset="1"></stop></linearGradient></defs></svg>